<svg xmlns="http://www.w3.org/2000/svg" viewBox="1069.7 119.228 406.0901 624.068" width="2024.36px" height="2496.272.136px" fill="none" >
<g opacity="0.78">  
<path fill="white" d="M 1320.93 743.296 C 1320.93 743.296 1431.19 235.221 1431.19 221.714 C 1431.19 208.207 1431.4 208.059 1431.4 208.059 L 1439.14 201.161 L 1444.49 201.302 L 1461.81 210.452 L 1473.62 175.035 L 1475.79 152.955 L 1472.06 140.827 L 1468.64 136.473 L 1436.61 140.205 L 1402.4 151.711 L 1361.97 167.261 L 1303.5 184.987 L 1264.32 182.188 L 1245.73 177.557 L 1127.82 119.228 L 1116.79 124.574 L 1151.16 152.197 L 1171.42 179.205 L 1187.38 195.165 L 1184.31 221.56 L 1160.37 238.747 L 1138.89 256.549 L 1104.79 340.266 L 1103.19 416.811 L 1130.3 483.788 L 1109.57 522.061 L 1092.03 534.819 L 1074.49 633.69 L 1069.7 697.477 L 1320.93 743.296 Z"/>
</g>
</svg>